<?xml version="1.0" encoding="utf-8"?>
<!-- Generator: Adobe Illustrator 28.3.0, SVG Export Plug-In . SVG Version: 6.00 Build 0)  -->
<svg version="1.1" id="Capa_1" xmlns="http://www.w3.org/2000/svg" xmlns:xlink="http://www.w3.org/1999/xlink" x="0px" y="0px"
	 viewBox="0 0 140 44" style="enable-background:new 0 0 140 44;" xml:space="preserve">
<style type="text/css">
	.st0{fill-rule:evenodd;clip-rule:evenodd;fill:#FFFFFF;fill-opacity:0.8;}
</style>
<path class="st0" d="M126.8,23.4c0.2-0.3,0.7-0.3,0.9,0h0l0.9,1.2c0.2,0.2,0.2,0.5,0,0.8c-1.5,1.9-4.1,3.8-7.2,4
	c-2.5,0.1-4.5-0.8-5.6-2.6c-0.2-0.4-0.7-0.4-1,0c-1.3,1.8-2.9,3.2-4.6,3.3c-3,0.2-3.8-1.8-3.1-6.2c0.1-0.4-0.3-0.8-0.7-0.7
	c-0.6,0.2-1.3,0.2-1.9,0.2c-0.3,0-0.5,0.1-0.6,0.4c-1.1,3.6-3.7,7-7.1,7.2c-2.2,0.1-5.4-1.1-5.1-6.3c0-0.4-0.4-0.8-0.7-0.6
	c-0.7,0.2-1.4,0.3-2.2,0.2c-0.3,0-0.5,0.1-0.6,0.4c-1.1,3.6-3.7,7-7.1,7.2c-2.2,0.1-5.4-1.1-5.1-6.3c0-0.4-0.4-0.8-0.7-0.6
	C74.5,25,73.8,25.1,73,25c-0.3,0-0.5,0.1-0.6,0.4c-1.1,3.6-3.7,7-7.1,7.2c-1.5,0.1-3.6-0.5-4.6-2.7c-0.2-0.4-0.7-0.5-1-0.1
	c-1.3,1.8-3,3.3-4.7,3.4c-1.7,0.1-2.7-0.6-3.1-1.8c-0.1-0.4-0.7-0.5-1-0.2c-1.2,1.4-2.5,2.4-3.9,2.5c-2.1,0.1-3.3-1.4-3.4-3.3
	c-0.1-2.2,0.8-4.8,1.9-7.6c0.1-0.4-0.1-0.8-0.5-0.8c-0.6,0-1.3-0.1-2-0.2c-0.3-0.1-0.6,0.1-0.7,0.4c-1.3,4.5-3.2,8.9-4.8,11.6
	c-0.2,0.3-0.6,0.4-0.8,0.2l-1.2-0.9c-0.3-0.2-0.3-0.6-0.2-0.8c2.4-3.8,4.5-9.7,5.2-14.1c0-0.3,0.3-0.5,0.5-0.5l1.7-0.1
	c0.4,0,0.7,0.3,0.6,0.7l0,0c-0.1,0.3,0.2,0.7,0.5,0.7c1.5,0.2,3.7,0.2,5.2,0.2c0.4,0,0.7,0.4,0.6,0.8c-1.2,3.2-2.8,7.7-2.7,9.5
	c0,0.8,0.4,1.2,1,1.2c1.2-0.1,3-2.5,4.4-5.1c0,0,0-0.1,0.1-0.2c0.5-2.1,1.2-4.4,1.9-6.7l0-0.1c0.1-0.2,0.3-0.4,0.5-0.4l2-0.1
	c0.4,0,0.7,0.4,0.6,0.8c-0.1,0.3-0.2,0.7-0.3,1c-1.7,5.7-3.2,10.5-1.2,10.4c1.3-0.1,3.1-2.3,4.7-5.4c0-0.1,0-0.1,0.1-0.2
	c0.1-0.4,0.2-0.8,0.3-1.3c0.9-3.7,2-7.3,3-10.9c0.3-1.1,0.6-2.2,1-3.4c0.1-0.2,0.3-0.4,0.5-0.4l2-0.1c0.4,0,0.7,0.4,0.6,0.8
	c-0.8,2.6-1.7,5.3-2.5,7.9c-0.2,0.6,0.4,1,0.9,0.7c0.8-0.6,1.7-0.9,2.6-1c2.3-0.1,3.9,1.8,4,4.6c0,0.2,0,0.3,0,0.5
	c0,0.3,0.2,0.6,0.5,0.6c1.1,0.1,2.2-0.2,3-1c0.1-0.1,0.1-0.2,0.2-0.3c0.8-3.3,1.8-6.5,2.7-9.8c0.3-1.1,0.6-2.2,1-3.4
	c0.1-0.2,0.3-0.4,0.5-0.4l2-0.1c0.4,0,0.7,0.4,0.6,0.8c-0.8,2.6-1.7,5.3-2.5,7.9c-0.2,0.6,0.4,1,0.9,0.7c0.8-0.6,1.7-0.9,2.6-1
	c2.3-0.1,3.9,1.8,4,4.6c0,0.2,0,0.3,0,0.5c0,0.3,0.2,0.6,0.5,0.6c1.1,0.1,2.2-0.2,3-1c0.1-0.1,0.1-0.2,0.2-0.3
	c0.8-3.3,1.8-6.5,2.7-9.8c0.3-1.1,0.6-2.2,1-3.4c0.1-0.2,0.3-0.4,0.5-0.4l2-0.1c0.4,0,0.7,0.4,0.6,0.8c-0.8,2.6-1.7,5.3-2.5,7.9
	c-0.2,0.6,0.4,1,0.9,0.7c0.8-0.6,1.7-0.9,2.6-1c2.3-0.1,3.9,1.8,4,4.6c0,0.2,0,0.3,0,0.5c0,0.3,0.2,0.6,0.5,0.6c1,0.1,2.1-0.2,3-0.9
	c0.1-0.1,0.2-0.2,0.2-0.3c1-3.7,2.4-8.6,3.7-13.2c0.1-0.2,0.3-0.4,0.5-0.4l2-0.1c0.4,0,0.7,0.4,0.6,0.8c-1.9,6.2-3.4,11.7-4.3,14.9
	c-1.1,4.4-1.2,5.6,0.1,5.5c1.1-0.1,2.5-1.6,3.9-3.9c0.1-0.1,0.1-0.2,0.1-0.3c0.2-4.6,3-8.8,7.2-9c2.8-0.2,4.3,2,4.5,4
	c0.2,4-3.7,6.5-7.5,6.3c-0.4,0-0.8,0.4-0.6,0.9c0.5,1.1,1.7,1.8,3.6,1.7C123.7,26.3,125.6,24.8,126.8,23.4z M63.7,24.5
	c-0.9,3.6,0.2,5.1,1.6,5c2.3-0.1,4.6-4.4,4.4-7.7c-0.1-1.4-0.9-2.2-1.9-2.1C66.2,19.7,64.4,21.6,63.7,24.5z M79.4,23.6
	c-0.9,3.6,0.2,5.1,1.6,5h0c2.3-0.1,4.6-4.4,4.4-7.7c-0.1-1.4-0.9-2.2-1.9-2.1C81.9,18.8,80.1,20.7,79.4,23.6z M95.1,22.7
	c-0.9,3.6,0.2,5.1,1.6,5h0c2.3-0.1,4.6-4.4,4.4-7.7c-0.1-1.4-0.9-2.2-1.9-2.1C97.6,17.9,95.8,19.8,95.1,22.7z M123.4,17.9
	c0-1-0.6-1.6-1.5-1.6h0c-1.9,0.1-3.3,2.1-3.8,4.6c-0.1,0.4,0.2,0.8,0.6,0.7C121.1,21.6,123.5,20,123.4,17.9z M36.1,19.7
	c-0.2-7.4-5-12.2-12.1-12c-3,0.1-6.5,1.3-9.1,3.4c-0.2,0.2-0.3,0.6-0.1,0.8l1.1,1.8c0.2,0.3,0.6,0.4,0.9,0.1c2-1.7,4.7-2.7,7.3-2.9
	c4.9-0.2,8.4,2.9,8.6,8.9c0.3,7-4.4,15-12,15.4c-0.3,0-0.5,0-0.8,0c-0.4,0-0.7-0.4-0.6-0.8c1.5-5.9,3.2-12.2,4.9-18
	c0.1-0.4-0.2-0.8-0.6-0.8l-2.2,0.1c-0.2,0-0.5,0.2-0.5,0.4c-1.7,5.8-3.3,12-4.8,17.9c-0.1,0.3-0.4,0.5-0.7,0.4
	c-0.8-0.3-1.5-0.6-2.1-0.9c-0.3-0.2-0.7,0-0.8,0.3l-0.9,2c-0.1,0.3,0,0.7,0.2,0.8c2.1,1.2,5.4,1.9,8.7,1.7
	C31.1,37.8,36.4,27.9,36.1,19.7L36.1,19.7z M57.3,10.6c-1.3,0.1-2.5,1.6-2.4,3.1c0.1,1,0.7,1.7,1.7,1.7c1.3-0.1,2.5-1.6,2.4-3.1
	C59,11.3,58.3,10.6,57.3,10.6z"/>
</svg>
