<?xml version="1.0" encoding="utf-8"?>
<!-- Generator: Adobe Illustrator 28.3.0, SVG Export Plug-In . SVG Version: 6.00 Build 0)  -->
<svg version="1.1" id="Capa_1" xmlns="http://www.w3.org/2000/svg" xmlns:xlink="http://www.w3.org/1999/xlink" x="0px" y="0px"
	 viewBox="0 0 140 36" style="enable-background:new 0 0 140 36;" xml:space="preserve">
<style type="text/css">
	.st0{clip-path:url(#SVGID_00000073693860885033125060000008068806353059985041_);}
	.st1{fill:#FFFFFF;fill-opacity:0.8;}
</style>
<g>
	<defs>
		<rect id="SVGID_1_" width="140" height="36"/>
	</defs>
	<clipPath id="SVGID_00000127752488688164479170000000800564503915225985_">
		<use xlink:href="#SVGID_1_"  style="overflow:visible;"/>
	</clipPath>
	<g style="clip-path:url(#SVGID_00000127752488688164479170000000800564503915225985_);">
		<path class="st1" d="M72.1,17.6c-1.2,0-2,0.4-2.8,0.8v8.7c0.8,0.1,1.3,0.1,2,0.1c2.8,0,3.2-1.3,3.2-3V20
			C74.4,18.7,74,17.6,72.1,17.6z M53.6,17.1c-1.9,0-2.4,1.1-2.4,2.4v0.7H56v-0.7C56,18.2,55.6,17.1,53.6,17.1z M17.9,26.2
			c0,1,0.5,1.6,1.6,1.6c1.2,0,1.8-0.4,2.7-0.8V25h-2.5C18.4,25,17.9,25.2,17.9,26.2z M90,17.6c-1.9,0-2.6,1.1-2.6,2.4v4.8
			c0,1.3,0.7,2.4,2.6,2.4c1.9,0,2.6-1.1,2.6-2.4V20C92.6,18.7,91.9,17.6,90,17.6z M8.5,31.6H2.8V17.9h-2.8v-4.7h2.8v-2.8
			c0-3.9,1.6-6.2,6.1-6.2h3.8v4.7h-2.4c-1.8,0-1.9,0.7-1.9,1.9l0,2.4h4.3l-0.5,4.7H8.5C8.5,17.9,8.5,31.6,8.5,31.6z M27.8,31.6h-4.7
			l-0.2-1.2c-2.2,1.2-4.1,1.4-5.4,1.4c-3.5,0-5.3-2.3-5.3-5.5c0-3.8,2.2-5.1,6-5.1h3.9v-0.8c0-1.9-0.2-2.5-3.2-2.5h-4.9l0.5-4.7h5.3
			c6.5,0,7.9,2.1,7.9,7.3C27.8,20.4,27.8,31.6,27.8,31.6z M43.9,18.2c-2.9-0.5-3.8-0.6-5.2-0.6c-2.5,0-3.3,0.6-3.3,2.7v4.1
			c0,2.2,0.8,2.7,3.3,2.7c1.4,0,2.3-0.1,5.2-0.6v4.6c-2.6,0.6-4.3,0.7-5.7,0.7c-6.1,0-8.5-3.2-8.5-7.8v-3.3c0-4.6,2.4-7.8,8.5-7.8
			c1.4,0,3.1,0.2,5.7,0.7C43.9,13.6,43.9,18.2,43.9,18.2z M61.7,24H51.3v0.4c0,2.2,0.8,2.7,3.3,2.7c2.3,0,3.7-0.1,6.6-0.6v4.6
			c-2.8,0.6-4.3,0.7-7.1,0.7c-6.1,0-8.5-3.2-8.5-7.8v-3.8c0-4,1.8-7.4,8-7.4s8,3.3,8,7.4V24z M80.1,24.1c0,4.5-1.3,7.7-9,7.7
			c-2.8,0-4.4-0.2-7.5-0.7V5.6l5.7-0.9v8.9c1.2-0.5,2.8-0.7,4.3-0.7c5.7,0,6.6,2.5,6.6,6.6L80.1,24.1L80.1,24.1z M98.3,24.2
			c0,3.9-1.6,7.6-8.3,7.6c-6.7,0-8.3-3.7-8.3-7.6v-3.7c0-3.9,1.6-7.6,8.3-7.6c6.7,0,8.3,3.7,8.3,7.6C98.3,20.5,98.3,24.2,98.3,24.2z
			 M116.5,24.2c0,3.9-1.6,7.6-8.3,7.6c-6.7,0-8.3-3.7-8.3-7.6v-3.7c0-3.9,1.6-7.6,8.3-7.6c6.7,0,8.3,3.7,8.3,7.6
			C116.5,20.5,116.5,24.2,116.5,24.2z M135.1,31.6H129l-5.2-8.7v8.7h-5.7v-26l5.7-0.9v16.8l5.2-8.2h6.1l-5.7,9L135.1,31.6z
			 M108.2,17.6c-1.9,0-2.6,1.1-2.6,2.4v4.8c0,1.3,0.7,2.4,2.6,2.4c1.9,0,2.6-1.1,2.6-2.4V20C110.8,18.7,110.1,17.6,108.2,17.6z
			 M138.3,28.4c1,0,1.7,0.8,1.7,1.8c0,1-0.8,1.8-1.7,1.8c-1,0-1.7-0.8-1.7-1.8C136.6,29.1,137.4,28.4,138.3,28.4L138.3,28.4z
			 M138.3,28.6c-0.8,0-1.4,0.7-1.4,1.5c0,0.8,0.6,1.5,1.4,1.5c0.8,0,1.4-0.7,1.4-1.5S139.1,28.6,138.3,28.6L138.3,28.6z M138,31.1
			h-0.3v-2c0.2,0,0.3,0,0.6,0c0.3,0,0.5,0.1,0.6,0.1c0.1,0.1,0.2,0.2,0.2,0.4c0,0.3-0.2,0.4-0.4,0.5v0c0.2,0,0.3,0.2,0.3,0.5
			c0,0.3,0.1,0.4,0.1,0.5h-0.3c0-0.1-0.1-0.2-0.1-0.5c0-0.2-0.2-0.3-0.4-0.3H138L138,31.1L138,31.1z M138,30h0.2
			c0.3,0,0.5-0.1,0.5-0.3c0-0.2-0.1-0.3-0.5-0.3c-0.1,0-0.2,0-0.2,0C138,29.4,138,30,138,30z"/>
	</g>
</g>
</svg>
