<?xml version="1.0" encoding="utf-8"?>
<!-- Generator: Adobe Illustrator 28.3.0, SVG Export Plug-In . SVG Version: 6.00 Build 0)  -->
<svg version="1.1" id="Capa_1" xmlns="http://www.w3.org/2000/svg" xmlns:xlink="http://www.w3.org/1999/xlink" x="0px" y="0px"
	 viewBox="0 0 140 44" style="enable-background:new 0 0 140 44;" xml:space="preserve">
<style type="text/css">
	.st0{fill:#FFFFFF;fill-opacity:0.8;}
</style>
<g>
	<path class="st0" d="M39,19.4H31c-0.2,0-0.3,0.1-0.3,0.3v4c0,0.2,0.1,0.4,0.3,0.4h3.2V29c0,0-0.7,0.3-2.7,0.3c-2.3,0-5.6-0.8-5.6-8
		c0-7.1,3.4-8,6.5-8c2.7,0,3.9,0.5,4.7,0.7c0.2,0.1,0.5-0.1,0.5-0.3l0.9-3.8c0-0.1,0-0.2-0.1-0.3c-0.3-0.2-2.1-1.2-6.9-1.2
		c-5.3,0-10.9,2.3-10.9,13.3c0,11,6.3,12.7,11.7,12.7c4.4,0,7.1-1.9,7.1-1.9c0.1-0.1,0.1-0.2,0.1-0.3V19.8
		C39.4,19.6,39.2,19.4,39,19.4 M80.6,9.6c0-0.2-0.1-0.4-0.3-0.4l0,0h-4.5c-0.2,0-0.3,0.1-0.3,0.4l0,0v8.8h-7.1V9.6
		c0-0.2-0.2-0.3-0.4-0.3l0,0h-4.5c-0.2,0-0.3,0.1-0.3,0.4v23.8c0,0.2,0.1,0.4,0.3,0.4h4.5c0.2,0,0.3-0.1,0.3-0.4V23.2h7.1v10.1
		c0,0.2,0.1,0.4,0.3,0.4h4.6c0.2,0,0.3-0.1,0.3-0.4L80.6,9.6 M47.6,12.7c0-1.6-1.3-2.9-2.9-2.9s-2.9,1.3-2.9,2.9s1.3,2.9,2.9,2.9
		C46.3,15.7,47.6,14.4,47.6,12.7 M47.3,28.3v-11c0-0.2-0.1-0.4-0.3-0.4h-4.5c-0.2,0-0.4,0.2-0.4,0.4v15.7c0,0.5,0.3,0.6,0.7,0.6h4
		c0.5,0,0.5-0.2,0.5-0.6V28.3 M97.9,17h-4.5c-0.2,0-0.3,0.1-0.3,0.4v11.7c0,0-1.2,0.8-2.7,0.8c-1.6,0-2.1-0.8-2.1-2.3V17.4
		c0-0.2-0.1-0.4-0.3-0.4h-4.6c-0.2,0-0.3,0.1-0.3,0.4v10.9c0,4.7,2.6,5.9,6.2,5.9c2.9,0,5.3-1.6,5.3-1.6s0.1,0.9,0.1,1
		c0.1,0.1,0.2,0.2,0.3,0.2h2.9c0.2,0,0.3-0.1,0.3-0.4v-16C98.2,17.2,98.1,17,97.9,17 M108.4,29.8c-1.6-0.1-2.6-0.8-2.6-0.8v-7.5
		c0,0,1-0.6,2.3-0.8c1.6-0.1,3.2,0.3,3.2,4.2C111.3,29.2,110.5,29.9,108.4,29.8z M110.1,16.5c-2.5,0-4.3,1.2-4.3,1.2V9.6
		c0-0.2-0.1-0.4-0.3-0.4h-4.5c-0.2,0-0.3,0.1-0.3,0.4l0,0v23.8c0,0.2,0.1,0.4,0.3,0.4h3.2c0.1,0,0.3-0.1,0.3-0.2
		c0.1-0.1,0.2-1.1,0.2-1.1s1.9,1.8,5.4,1.8c4.1,0,6.5-2.1,6.5-9.4C116.5,17.4,112.7,16.5,110.1,16.5 M60.3,17h-3.4v-4.5
		c0-0.1-0.1-0.3-0.3-0.3h-4.7c-0.2,0-0.3,0.1-0.3,0.3v4.7c0,0-2.3,0.5-2.5,0.6c-0.1,0.1-0.3,0.2-0.3,0.3V21c0,0.2,0.1,0.4,0.3,0.4
		h2.4v7c0,5.2,3.6,5.8,6.1,5.8c1.1,0,2.5-0.3,2.7-0.4c0.1-0.1,0.2-0.2,0.2-0.3v-3.2c0-0.2-0.2-0.4-0.3-0.4c-0.2,0-0.7,0.1-1.2,0.1
		c-1.6,0-2.3-0.8-2.3-1.8v-6.7h3.4c0.2,0,0.3-0.1,0.3-0.4v-3.6C60.7,17.2,60.5,17,60.3,17L60.3,17"/>
</g>
</svg>
