<?xml version="1.0" encoding="utf-8"?>
<!-- Generator: Adobe Illustrator 28.3.0, SVG Export Plug-In . SVG Version: 6.00 Build 0)  -->
<svg version="1.1" id="Capa_1" xmlns="http://www.w3.org/2000/svg" xmlns:xlink="http://www.w3.org/1999/xlink" x="0px" y="0px"
	 viewBox="0 0 140 44" style="enable-background:new 0 0 140 44;" xml:space="preserve">
<style type="text/css">
	.st0{fill-rule:evenodd;clip-rule:evenodd;fill:#FFFFFF;fill-opacity:0.8;}
</style>
<path class="st0" d="M119.2,19.2c0-0.6,0-1.2,0-1.7c0-0.3-0.1-0.4-0.4-0.4c-1.4,0-2.8,0-4.2,0c-0.3,0-0.4,0.1-0.4,0.4
	c0,5.2,0,10.3,0,15.5c0,0.3,0.1,0.4,0.4,0.4c1.4,0,2.9,0,4.3,0c0.4,0,0.4,0,0.4-0.4c0-2.6,0-5.1,0-7.7c0-0.5,0-1.1,0.1-1.6
	c0.2-1.4,1-2.5,2.9-2.5c1.4,0,2.2,0.7,2.4,2c0.1,0.7,0.2,1.4,0.2,2.2c0,2.5,0,5.1,0,7.6c0,0.3,0.1,0.4,0.4,0.4c1.4,0,2.9,0,4.3,0
	c0.3,0,0.4-0.1,0.4-0.4c0-3.1,0-6.3,0-9.4c0-1-0.2-2-0.4-2.9c-0.4-1.8-1.5-3.1-3.3-3.6c-0.6-0.2-1.2-0.2-1.8-0.3
	c-1-0.1-1.9,0-2.9,0.4C120.8,17.5,119.9,18.3,119.2,19.2L119.2,19.2z M111.2,25.3c0-2.6,0-5.2,0-7.8c0-0.3-0.1-0.4-0.4-0.4
	c-1.4,0-2.9,0-4.3,0c-0.3,0-0.4,0.1-0.4,0.4c0,5.2,0,10.3,0,15.5c0,0.3,0.1,0.4,0.4,0.4c1.4,0,2.9,0,4.3,0c0.4,0,0.4,0,0.4-0.4
	C111.2,30.4,111.2,27.8,111.2,25.3L111.2,25.3z M111.6,12c0-1.6-1.3-2.9-2.9-2.9c-1.7,0-3,1.3-3,2.9s1.3,2.9,2.9,2.9
	C110.3,15,111.6,13.7,111.6,12z"/>
<path class="st0" d="M91.4,31.2c-0.1,0.1-0.2,0.2-0.2,0.2c-1.3,1.5-2.9,2.3-4.9,2.3c-2.2,0-4.1-0.7-5.6-2.3
	c-1.1-1.2-1.8-2.6-2.1-4.1c-0.4-2.2-0.2-4.3,0.7-6.3c1-2.1,2.6-3.6,4.9-4.2c1.7-0.4,3.4-0.2,5,0.5c0.6,0.3,1.1,0.7,1.5,1.2
	c0.1,0.1,0.1,0.1,0.2,0.3c0-0.2,0-0.3,0-0.4c0-2.9,0-5.7,0-8.6c0-0.3,0.1-0.4,0.4-0.4c1.4,0,2.8,0,4.2,0c0.3,0,0.4,0.1,0.4,0.4
	c0,7.7,0,15.4,0,23.1c0,0.3-0.1,0.4-0.3,0.4c-1.3,0-2.6,0-3.9,0c-0.3,0-0.3-0.1-0.3-0.3c0-0.5,0-1,0-1.4
	C91.5,31.4,91.5,31.3,91.4,31.2L91.4,31.2L91.4,31.2z M87.4,29.4c0.2,0,0.5,0,0.7-0.1c1-0.1,1.8-0.5,2.4-1.3
	c0.6-0.7,0.8-1.5,0.9-2.4c0.1-1.3-0.2-2.6-1.2-3.6c-0.7-0.7-1.5-0.9-2.5-1c-1.2-0.1-2.4,0.2-3.3,1.1c-1.1,1.1-1.3,2.4-1.1,3.8
	C83.8,28.1,85.3,29.3,87.4,29.4L87.4,29.4z"/>
<path class="st0" d="M49.4,25.4c0,0.1,0,0.2,0,0.4c0,2.4,0,4.8,0,7.2c0,0.3-0.1,0.4-0.4,0.4c-1.4,0-2.9,0-4.3,0
	c-0.3,0-0.3-0.1-0.3-0.3c0-7.7,0-15.4,0-23.1c0-0.3,0.1-0.4,0.4-0.4c1.4,0,2.8,0,4.3,0c0.3,0,0.4,0.1,0.4,0.4c0,4.5,0,8.9,0,13.4
	c0,0.1,0,0.3,0,0.5c0.2-0.2,0.3-0.3,0.4-0.4c1.7-2,3.4-3.9,5.1-5.9c0.2-0.2,0.3-0.3,0.6-0.3c1.8,0,3.6,0,5.3,0c0.1,0,0.2,0,0.4,0
	c-0.1,0.1-0.1,0.2-0.2,0.2c-2,2.3-4.1,4.7-6.1,7c-0.2,0.2-0.2,0.3,0,0.5c2,2.7,4,5.4,6,8c0.1,0.1,0.1,0.2,0.2,0.3
	c-0.2,0-0.3,0-0.4,0c-1.8,0-3.7,0-5.5,0c-0.3,0-0.4-0.1-0.5-0.3c-1.6-2.5-3.3-4.9-4.9-7.4c-0.1-0.1-0.2-0.2-0.2-0.3
	C49.4,25.3,49.4,25.3,49.4,25.4L49.4,25.4z"/>
<path class="st0" d="M72.6,28c1.2,0.8,2.3,1.7,3.5,2.6c-0.5,0.4-0.9,0.9-1.4,1.3c-1.5,1.2-3.2,1.8-5.1,1.9c-2.6,0.1-5-0.6-6.9-2.5
	c-1.4-1.3-2.1-2.9-2.4-4.8c-0.2-1.7-0.1-3.3,0.6-4.9c1.1-2.5,3.1-4,5.7-4.6c1.7-0.4,3.5-0.5,5.2,0.1c2.4,0.8,3.8,2.4,4.6,4.8
	c0.3,0.9,0.4,1.8,0.5,2.7c0,0.6,0,1.2,0.1,1.8c0,0.3-0.1,0.4-0.4,0.4c-3.6,0-7.2,0-10.8,0c-0.2,0-0.3,0-0.5,0
	c-0.1,0.8,0.8,2.3,2.1,2.9C68.9,30.3,71.2,30,72.6,28L72.6,28z M65.2,23.4c0.2,0,0.3,0,0.4,0c1.3,0,2.7,0,4,0c0.7,0,1.3,0,2,0
	c0.2,0,0.3-0.1,0.3-0.3c-0.1-0.5-0.2-1-0.4-1.4c-1.1-1.9-4.1-2-5.5-0.2C65.5,22,65.2,22.6,65.2,23.4L65.2,23.4z"/>
<path class="st0" d="M30.9,19.4c0.1-0.1,0.2-0.2,0.2-0.2c1.1-1.7,2.7-2.5,4.7-2.4c1.1,0,2.1,0.1,3.1,0.6c1.3,0.7,2,1.8,2.4,3.2
	c0.3,1.1,0.4,2.3,0.4,3.4c0,3,0,5.9,0,8.9c0,0.4,0,0.4-0.4,0.4c-1.4,0-2.7,0-4.1,0c-0.3,0-0.4-0.1-0.4-0.4c0-2.6,0-5.1,0-7.7
	c0-0.7-0.1-1.5-0.2-2.2c-0.3-1.5-1.5-2-2.9-1.9c-1.7,0.2-2.3,1.4-2.5,2.6c-0.1,0.6-0.1,1.3-0.1,1.9c0,2.4,0,4.8,0,7.3
	c0,0.3-0.1,0.4-0.4,0.4c-1.4,0-2.8,0-4.3,0c-0.3,0-0.3-0.1-0.3-0.3c0-5.2,0-10.3,0-15.5c0-0.2,0.1-0.3,0.3-0.3c1.4,0,2.8,0,4.2,0
	c0.2,0,0.3,0.1,0.3,0.3c0,0.5,0,1,0,1.6C30.9,19.1,30.9,19.2,30.9,19.4L30.9,19.4z"/>
<path class="st0" d="M1,21.4c0-3.8,0-7.7,0-11.5c0-0.4,0-0.4,0.4-0.4c1.5,0,2.9,0,4.3,0c0.3,0,0.4,0.1,0.4,0.4c0,6.1,0,12.1,0,18.2
	c0,0.3,0.2,0.5,0.5,0.5c3,0,5.9,0,8.9,0c0.3,0,0.4,0.1,0.4,0.4c0,1.4,0,2.7,0,4.1c0,0.3-0.1,0.3-0.3,0.3c-4.7,0-9.5,0-14.2,0
	C1.1,33.3,1,33.2,1,32.9C1,29.1,1,25.2,1,21.4z"/>
<path class="st0" d="M23.3,25.2c0,2.6,0,5.1,0,7.7c0,0.3-0.1,0.4-0.3,0.4c-1.4,0-2.9,0-4.3,0c-0.3,0-0.3-0.1-0.3-0.4
	c0-5.1,0-10.3,0-15.4c0-0.3,0.1-0.4,0.4-0.4c1.4,0,2.8,0,4.3,0c0.3,0,0.4,0.1,0.4,0.4C23.3,20.1,23.3,22.7,23.3,25.2L23.3,25.2z"/>
<path class="st0" d="M23.6,12c0.1,1.3-1,2.9-2.9,2.9s-2.9-1.6-2.9-2.9c0-1.6,1.3-2.9,2.9-2.9C22.4,9.1,23.6,10.4,23.6,12z"/>
<path class="st0" d="M119.2,19.2c0.7-1,1.5-1.7,2.6-2.1c0.9-0.4,1.9-0.5,2.9-0.4c0.6,0.1,1.2,0.1,1.8,0.3c1.8,0.5,2.8,1.8,3.3,3.6
	c0.2,1,0.4,2,0.4,2.9c0,3.1,0,6.3,0,9.4c0,0.3-0.1,0.4-0.4,0.4c-1.4,0-2.9,0-4.3,0c-0.3,0-0.4-0.1-0.4-0.4c0-2.5,0-5.1,0-7.6
	c0-0.7-0.1-1.5-0.2-2.2c-0.2-1.3-1-2-2.4-2c-1.9,0-2.6,1-2.9,2.5c-0.1,0.5-0.1,1.1-0.1,1.6c0,2.6,0,5.1,0,7.7c0,0.4,0,0.4-0.4,0.4
	c-1.4,0-2.9,0-4.3,0c-0.3,0-0.4-0.1-0.4-0.4c0-5.2,0-10.3,0-15.5c0-0.3,0.1-0.4,0.4-0.4c1.4,0,2.8,0,4.2,0c0.3,0,0.4,0.1,0.4,0.4
	C119.2,18.1,119.2,18.6,119.2,19.2L119.2,19.2z"/>
<path class="st0" d="M111.2,25.3c0,2.6,0,5.1,0,7.7c0,0.4,0,0.4-0.4,0.4c-1.4,0-2.9,0-4.3,0c-0.3,0-0.4-0.1-0.4-0.4
	c0-5.2,0-10.3,0-15.5c0-0.3,0.1-0.4,0.4-0.4c1.4,0,2.9,0,4.3,0c0.3,0,0.4,0.1,0.4,0.4C111.2,20.1,111.2,22.7,111.2,25.3L111.2,25.3z
	"/>
<path class="st0" d="M111.6,12c0,1.6-1.3,3-3,2.9c-1.6,0-2.9-1.3-2.9-2.9s1.3-2.9,3-2.9C110.3,9.1,111.6,10.4,111.6,12z"/>
</svg>
